<svg xmlns="http://www.w3.org/2000/svg" width="32" height="32" viewBox="0 0 32 32"><g transform="translate(-215.897 115.603)"><g transform="translate(215.397 -115.607)"><path fill="#febb46" fill-rule="evenodd" d="m 19.503491,5.8599515 c -0.08175,6.7930665 0.543802,14.1459085 2.025172,19.6067135 l -10.010033,0 C 13,20.00586 13.593771,12.653018 13.512022,5.8599515 Z"/><path fill="#f49d3b" fill-rule="evenodd" d="m 19.503491,7.508608 c -0.08175,6.793067 0.543802,12.497252 2.025172,17.958057 l -10.010033,0 c 6.264704,-1.678622 7.984861,-2.258904 7.984861,-17.958057 z"/><path fill="#1b1e34" stroke="#12141a" stroke-linecap="round" style="isolation:auto;mix-blend-mode:normal" d="m 9.1254599,28.50586 c -0.9015099,0 -1.6254594,0.61482 -1.6254594,1.378906 l 0,0.236328 c 0,0.0086 0.00188,0.01678 0.00206,0.02539 l -0.00206,0 0,1.353516 1.6254594,0 14.7490801,0 1.625459,0 0,-1.353516 -0.0021,0 c 1.85e-4,-0.0086 0.0021,-0.01674 0.0021,-0.02539 l 0,-0.236328 c 0,-0.764086 -0.723949,-1.378906 -1.625459,-1.378906 l -14.7490801,0 z" color="#000" overflow="visible"/><rect width="5.781" height="1" x="13.609" y="6" fill="#f49d3b" rx="0" ry="0"/><path fill="none" stroke="#fed87f" d="M 12.624775,25.466665 C 14.106145,20.00586 14.572797,12.802067 14.491048,6.009" opacity=".421"/><path fill="#2e303e" fill-rule="evenodd" d="m 10.602865,28.993148 2,0 c -0.329721,0.365177 -0.446222,0.717567 -0.459698,1.059016 -0.0132,0.334438 0.01382,0.501041 0.01382,0.940984 l -2.073032,0 c 0,-0.578897 -0.01417,-0.680508 -0.0051,-1.020761 0.0087,-0.326413 0.184873,-0.652826 0.524028,-0.979239 z"/><rect width="13.832" height="3" x="9.618" y="25.506" fill="#fece5f" stroke="#12141a" rx="1.5" ry="1.5"/><path fill="#fed87f" fill-rule="evenodd" d="m 11.588035,26.00586 2,0 c -0.641909,0.710936 -0.586385,1.373774 0,2 l -2,0 c -0.705588,-0.666667 -0.692693,-1.333333 0,-2 z"/><path fill="#fed36e" fill-rule="evenodd" d="m 14.305036,26.00586 0.712924,0 c -0.641909,0.710936 -0.586385,1.373774 0,2 l -0.712924,0 c -0.705588,-0.666667 -0.692693,-1.333333 0,-2 z"/><path fill="#24273b" fill-rule="evenodd" d="m 13.351806,28.993148 0.776483,0 c -0.329721,0.365177 -0.446222,0.717567 -0.459698,1.059016 -0.0132,0.334438 0.01382,0.501041 0.01382,0.940984 l -0.849515,0 c 0,-0.578897 -0.01417,-0.680508 -0.0051,-1.020761 0.0087,-0.326413 0.184873,-0.652826 0.524028,-0.979239 z"/><path fill="#f9a74a" fill-rule="evenodd" d="m 21.675956,26.00586 -1.101135,0 c 0.641909,0.710936 0.586385,1.373774 0,2 l 1.101135,0 c 0.705588,-0.666667 0.692693,-1.333333 0,-2 z"/><path fill="#16192b" fill-rule="evenodd" d="m 23.289158,28.993148 -1.370795,0 c 0.329721,0.365177 0.446222,0.717567 0.459698,1.059016 0.0132,0.334438 -0.01382,0.501041 -0.01382,0.940984 l 1.443827,0 c 0,-0.578897 0.01417,-0.680508 0.0051,-1.020761 -0.0087,-0.326413 -0.184873,-0.652826 -0.524028,-0.979239 z"/><rect width="5.781" height="1" x="13.609" y="10.015" fill="#f49d3b" rx="0" ry="0"/><path fill="#febb46" stroke="#12141a" stroke-linecap="round" stroke-linejoin="round" d="m 11.5,0.50893928 2.006708,0 1.9e-4,1.99106072 1.984205,0 -1.9e-4,-1.99106072 2.034986,0 0,1.99106072 2.018427,0 -0.01308,-1.99106072 1.983694,0 0,4.99669182 -10.01494,0 z"/><path fill="none" stroke="#12141a" d="M 19.503491,5.4622039 C 19.412779,13 20.047293,20.00586 21.528663,25.466665 l -10.010033,0 C 13,20.00586 13.602733,13 13.512022,5.4622039"/><rect width="10" height="2" x="11.5" y="7.5" fill="#fece5f" stroke="#12141a" rx="1.13" ry="1"/><path fill="#fed87f" fill-rule="evenodd" d="m 14.012345,7.9999997 1.000001,0 c -0.320956,0.3554679 -0.293193,0.6868871 0,1 l -1.000001,0 c -0.352794,-0.3333335 -0.346347,-0.6666665 0,-1 z"/><path fill="#fec85e" fill-rule="evenodd" stroke="#fed87f" d="m 14.499999,3 0,2" opacity=".421"/><path fill="#f9a74a" fill-rule="evenodd" d="m 19.737817,7.9999997 -1.000001,0 c 0.320956,0.3554679 0.293193,0.6868871 0,1 l 1.000001,0 c 0.352794,-0.3333335 0.346347,-0.6666665 0,-1 z"/></g><path fill="#fff" fill-rule="evenodd" d="m 228.91795,-107.91209 c -0.146,0.14601 -0.61226,0.30613 -0.61226,0.30613 0,0 0.46865,0.16253 0.61226,0.30613 0.1436,0.14361 0.30613,0.60628 0.30613,0.60628 0,0 0.16252,-0.46267 0.30613,-0.60628 0.1436,-0.1436 0.61226,-0.30613 0.61226,-0.30613 0,0 -0.46626,-0.16012 -0.61226,-0.30613 -0.146,-0.146 -0.30613,-0.6266 -0.30613,-0.6266 0,0 -0.16013,0.4806 -0.30613,0.6266 z" color="#000" font-family="sans-serif" font-weight="400" overflow="visible" white-space="normal" style="line-height:normal;text-indent:0;text-align:start;text-decoration-line:none;text-decoration-style:solid;text-decoration-color:#000;text-transform:none;block-progression:tb;isolation:auto;mix-blend-mode:normal"/></g></svg>