<svg xmlns="http://www.w3.org/2000/svg" width="32" height="32" viewBox="0 0 32 32"><g transform="translate(-194.949 115.606)"><g transform="translate(194.449 -115.604)"><rect width="6" height="3.5" x="13.5" y="2.5" fill="#fece5f" stroke="#12141a" rx="1.742" ry="1.75"/><path fill="#febb46" fill-rule="evenodd" d="m 19.503491,6.406 c -0.08175,6.793067 0.543802,13.59693 2.025172,19.057735 l -10.010033,0 C 13,20.00293 13.593771,13.199067 13.512022,6.406 Z"/><path fill="#f49d3b" fill-rule="evenodd" d="m 19.503491,7.505678 c -0.08175,6.793067 0.543802,12.497252 2.025172,17.958057 l -10.010033,0 c 6.264704,-1.678622 7.984861,-2.258904 7.984861,-17.958057 z"/><path fill="#1b1e34" stroke="#12141a" stroke-linecap="round" style="isolation:auto;mix-blend-mode:normal" d="M 9.1254594,28.50293 C 8.2239495,28.50293 7.5,29.11775 7.5,29.881836 l 0,0.236328 c 0,0.0086 0.00188,0.01678 0.00206,0.02539 l -0.00206,0 0,1.353516 1.6254594,0 14.7490806,0 1.625459,0 0,-1.353516 -0.0021,0 c 1.85e-4,-0.0086 0.0021,-0.01674 0.0021,-0.02539 l 0,-0.236328 c 0,-0.764086 -0.723949,-1.378906 -1.625459,-1.378906 l -14.7490806,0 z" color="#000" overflow="visible"/><rect width="5.629" height="1" x="13.685" y="12" fill="#f49d3b" rx="0" ry="0"/><path fill="none" stroke="#fed87f" d="M 12.623486,25.463735 C 14.104856,20.00293 14.579943,14 14.489759,6.506" opacity=".421"/><path fill="#2e303e" fill-rule="evenodd" d="m 10.602865,28.990218 2,0 c -0.329721,0.365177 -0.446222,0.717567 -0.459698,1.059016 -0.0132,0.334438 0.01382,0.501041 0.01382,0.940984 l -2.073032,0 c 0,-0.578897 -0.01417,-0.680508 -0.0051,-1.020761 0.0087,-0.326413 0.184873,-0.652826 0.524028,-0.979239 z"/><rect width="13.832" height="3" x="9.618" y="25.503" fill="#fece5f" stroke="#12141a" rx="1.5" ry="1.5"/><path fill="#fed87f" fill-rule="evenodd" d="m 11.588035,26.00293 2,0 c -0.641909,0.710936 -0.586385,1.373774 0,2 l -2,0 c -0.705588,-0.666667 -0.692693,-1.333333 0,-2 z"/><path fill="#fed36e" fill-rule="evenodd" d="m 14.305036,26.00293 0.712924,0 c -0.641909,0.710936 -0.586385,1.373774 0,2 l -0.712924,0 c -0.705588,-0.666667 -0.692693,-1.333333 0,-2 z"/><path fill="#24273b" fill-rule="evenodd" d="m 13.351806,28.990218 0.776483,0 c -0.329721,0.365177 -0.446222,0.717567 -0.459698,1.059016 -0.0132,0.334438 0.01382,0.501041 0.01382,0.940984 l -0.849515,0 c 0,-0.578897 -0.01417,-0.680508 -0.0051,-1.020761 0.0087,-0.326413 0.184873,-0.652826 0.524028,-0.979239 z"/><path fill="#f9a74a" fill-rule="evenodd" d="m 21.675956,26.00293 -1.101135,0 c 0.641909,0.710936 0.586385,1.373774 0,2 l 1.101135,0 c 0.705588,-0.666667 0.692693,-1.333333 0,-2 z"/><path fill="#16192b" fill-rule="evenodd" d="m 23.289158,28.990218 -1.370795,0 c 0.329721,0.365177 0.446222,0.717567 0.459698,1.059016 0.0132,0.334438 -0.01382,0.501041 -0.01382,0.940984 l 1.443827,0 c 0,-0.578897 0.01417,-0.680508 0.0051,-1.020761 -0.0087,-0.326413 -0.184873,-0.652826 -0.524028,-0.979239 z"/><circle cx="16.514" cy="1.501" r="1.001" fill="#fece5f" stroke="#12141a" stroke-linecap="round" stroke-linejoin="round"/><rect width="10" height="2" x="11.5" y="4.5" fill="#fece5f" stroke="#12141a" rx="1.13" ry="1"/><path fill="#fed87f" fill-rule="evenodd" d="m 14.012345,4.9999993 1.000001,0 c -0.320956,0.3554683 -0.293193,0.6868873 0,1.0000003 l -1.000001,0 c -0.352794,-0.333334 -0.346347,-0.666667 0,-1.0000003 z"/><path fill="none" stroke="#12141a" d="m 19.503491,6.306 c 0,7.694 0.543802,13.69693 2.025172,19.157735 l -10.010033,0 C 13,20.00293 13.604613,14 13.512022,6.306"/><rect width="10" height="2" x="11.5" y="9.485" fill="#fece5f" stroke="#12141a" rx="1.13" ry="1"/><path fill="#fed87f" fill-rule="evenodd" d="m 14.012345,9.9851697 1.000001,0 c -0.320956,0.3554683 -0.293193,0.6868873 0,1.0000003 l -1.000001,0 c -0.352794,-0.333334 -0.346347,-0.666667 0,-1.0000003 z"/><path fill="#febb46" fill-rule="evenodd" d="m 12.5,6.5 7.999999,0 c -0.499999,0.5 -0.5,2.5 0,3 L 12.5,9.5 C 13,9 13,7 12.5,6.5 Z"/><rect width="7" height="1" x="13" y="7.011" fill="#f49d3b" rx="0" ry="0"/><path fill="#febb46" fill-rule="evenodd" stroke="#fed87f" d="m 14.353553,9.5 c 0.5,-0.5 0.5,-2.5 0,-3" opacity=".421"/><path fill="none" stroke="#12141a" d="m 12.5,6.5 7.999999,0 c -0.499999,0.5 -0.5,2.5 0,3 L 12.5,9.5 C 13,9 13,7 12.5,6.5 Z"/><path fill="#fed87f" fill-rule="evenodd" d="m 15.993029,4 -0.976563,0 c 0,-0.3743924 0.307705,-1 1.484375,-1 -0.598771,0.1604402 -0.507812,0.5257774 -0.507812,1 z"/><path fill="#f9a74a" fill-rule="evenodd" d="M19.737817 4.9999993l-1.000001 0c.320956.3554683.293193.6868873 0 1.0000003l1.000001 0c.352794-.333334.346347-.666667 0-1.0000003zM19.737817 9.9851697l-1.000001 0c.320956.3554683.293193.6868873 0 1.0000003l1.000001 0c.352794-.333334.346347-.666667 0-1.0000003z"/></g><path fill="#fff" fill-rule="evenodd" style="line-height:normal;text-indent:0;text-align:start;text-decoration-line:none;text-decoration-style:solid;text-decoration-color:#000;text-transform:none;block-progression:tb;isolation:auto;mix-blend-mode:normal" d="m 207.93881,-110.91983 c -0.146,0.14601 -0.61226,0.30613 -0.61226,0.30613 0,0 0.46865,0.16253 0.61226,0.30613 0.1436,0.14361 0.30613,0.60628 0.30613,0.60628 0,0 0.16252,-0.46267 0.30613,-0.60628 0.1436,-0.1436 0.61226,-0.30613 0.61226,-0.30613 0,0 -0.46626,-0.16012 -0.61226,-0.30613 -0.146,-0.146 -0.30613,-0.6266 -0.30613,-0.6266 0,0 -0.16013,0.4806 -0.30613,0.6266 z" color="#000" font-family="sans-serif" font-weight="400" overflow="visible" white-space="normal"/></g></svg>