<svg xmlns="http://www.w3.org/2000/svg" width="32" height="32" viewBox="0 0 32 32"><g transform="translate(-257.794 113.107)"><g transform="translate(257.794 -115.607)"><path fill="#febb46" fill-rule="evenodd" d="m 18.10712,12.520092 c -0.05781,4.889752 0.384535,8.995711 1.432048,12.926481 l -7.078336,0 c 1.047513,-3.93077 1.467383,-8.036729 1.409576,-12.926481 z"/><path fill="#f49d3b" fill-rule="evenodd" d="m 17.902949,13.076133 c -0.05641,4.687017 0.375208,8.622737 1.39731,12.390532 l -6.906628,0 c 4.322462,-1.158201 5.509319,-1.558578 5.509319,-12.390532 z"/><path fill="#1b1e34" stroke="#12141a" stroke-linecap="round" d="m 9.8545491,28.50586 c -0.7512583,0 -1.3545496,0.61482 -1.3545496,1.378906 l 0,0.236328 c 0,0.0086 0.00157,0.01678 0.00172,0.02539 l -0.00172,0 0,1.353516 1.3545496,0 12.2909009,0 1.35455,0 0,-1.353516 -0.0018,0 c 1.54e-4,-0.0086 0.0018,-0.01674 0.0018,-0.02539 l 0,-0.236328 c 0,-0.764086 -0.603291,-1.378906 -1.35455,-1.378906 l -12.2909009,0 z" color="#000" overflow="visible" style="isolation:auto;mix-blend-mode:normal"/><rect width="5" height="1" x="13.5" y="10.021" fill="#f49d3b" rx="0" ry="0"/><rect width="7" height="2" x="12.5" y="10.521" fill="#fece5f" stroke="#12141a" rx="1" ry="1"/><path fill="#2e303e" fill-rule="evenodd" d="m 10.527042,28.993148 2,0 c -0.329721,0.365177 -0.446222,0.717567 -0.459698,1.059016 -0.0132,0.334438 0.01382,0.501041 0.01382,0.940984 l -2.073032,0 c 0,-0.578897 -0.01417,-0.680508 -0.0051,-1.020761 0.0087,-0.326413 0.184873,-0.652826 0.524028,-0.979239 z"/><rect width="11" height="3" x="10.5" y="25.506" fill="#fece5f" stroke="#12141a" rx="1.193" ry="1.5"/><path fill="#fed87f" fill-rule="evenodd" d="M12.524367 26.00586l2 0c-.641909.710936-.586385 1.373774 0 2l-2 0c-.705588-.666667-.692693-1.333333 0-2zM14.262183 11.02069l1.000001 0c-.320957.355468-.293194.686887 0 1l-1.000001 0c-.352794-.333334-.346347-.666667 0-1z"/><path fill="#fed36e" fill-rule="evenodd" d="m 15.241368,26.00586 0.712923,0 c -0.641909,0.710936 -0.586385,1.373774 0,2 l -0.712923,0 c -0.705589,-0.666667 -0.692693,-1.333333 0,-2 z"/><path fill="#24273b" fill-rule="evenodd" d="m 13.275983,28.993148 0.776483,0 c -0.329721,0.365177 -0.446222,0.717567 -0.459698,1.059016 -0.0132,0.334438 0.01382,0.501041 0.01382,0.940984 l -0.849515,0 c 0,-0.578897 -0.01417,-0.680508 -0.0051,-1.020761 0.0087,-0.326413 0.184873,-0.652826 0.524028,-0.979239 z"/><path fill="#f9a74a" fill-rule="evenodd" d="m 19.475633,26.00586 -1.101135,0 c 0.641909,0.710936 0.586385,1.373774 0,2 l 1.101135,0 c 0.705588,-0.666667 0.692693,-1.333333 0,-2 z"/><path fill="#16192b" fill-rule="evenodd" d="m 20.472958,28.993148 -1.370795,0 c 0.329721,0.365177 0.446222,0.717567 0.459698,1.059016 0.0132,0.334438 -0.01382,0.501041 -0.01382,0.940984 l 1.443827,0 c 0,-0.578897 0.01417,-0.680508 0.0051,-1.020761 -0.0087,-0.326413 -0.184873,-0.652826 -0.524028,-0.979239 z"/><circle cx="16" cy="8" r="2.5" fill="#febb46"/><path fill="#fed87f" fill-rule="evenodd" d="m 14.75,10 1,0 c -0.67589,-1.1015678 -0.723174,-2.7474255 0,-4 -1.011439,1.0114395 -1.625607,2.9164162 -1,4 z" opacity=".421"/><path fill="#f49d3b" fill-rule="evenodd" stroke="#f49d3b" d="m 14.03165,13.526835 3.966427,0"/><path fill="none" stroke="#fed87f" d="m 13.461264,25.446573 c 1.047513,-3.93077 1.467383,-8.036729 1.409576,-12.926481" opacity=".421"/><path fill="none" stroke="#12141a" d="m 18.10712,12.520092 c -0.05781,4.889752 0.384535,8.995711 1.432048,12.926481 l -7.078336,0 c 1.047513,-3.93077 1.467383,-8.036729 1.409576,-12.926481 z"/><circle cx="16" cy="8" r="2.5" fill="none" stroke="#12141a" stroke-linecap="round" stroke-linejoin="round"/><path fill="#f9a74a" fill-rule="evenodd" d="m 17.750001,11.02069 -1.000001,0 c 0.320957,0.355468 0.293194,0.686887 0,1 l 1.000001,0 c 0.352794,-0.333334 0.346347,-0.666667 0,-1 z"/></g><path fill="#fff" fill-rule="evenodd" d="m 271.80694,-104.89592 c -0.146,0.14601 -0.61226,0.30613 -0.61226,0.30613 0,0 0.46865,0.16253 0.61226,0.30613 0.1436,0.14361 0.30613,0.60628 0.30613,0.60628 0,0 0.16252,-0.46267 0.30613,-0.60628 0.1436,-0.1436 0.61226,-0.30613 0.61226,-0.30613 0,0 -0.46626,-0.16012 -0.61226,-0.30613 -0.146,-0.146 -0.30613,-0.6266 -0.30613,-0.6266 0,0 -0.16013,0.4806 -0.30613,0.6266 z" color="#000" font-family="sans-serif" font-weight="400" overflow="visible" white-space="normal" style="line-height:normal;text-indent:0;text-align:start;text-decoration-line:none;text-decoration-style:solid;text-decoration-color:#000;text-transform:none;block-progression:tb;isolation:auto;mix-blend-mode:normal"/></g></svg>