<svg xmlns="http://www.w3.org/2000/svg" width="32" height="32" viewBox="0 0 32 32"><g transform="translate(-236.846 115.64)"><g transform="translate(70.346 -115.607)"><path fill="#febb46" fill-rule="evenodd" d="M 179.4375,7.764833 C 177,5 180,3 182.45312,0.62323673 185,3 188,5 185.46875,7.764833"/><path fill="#fed87f" fill-rule="evenodd" d="M 182.40167,1 C 181,3 179.54235,5 180,7 l 1,0 c -0.5359,-2 0.24697,-4 1.40167,-6 z" opacity=".421"/><path fill="#febb46" fill-rule="evenodd" d="m 185.50349,7.3183592 c -0.0817,6.7930668 0.5438,12.6875008 2.02517,18.1483058 l -10.01003,0 C 179,20.00586 179.59377,14.111426 179.51202,7.3183592 Z"/><path fill="#f49d3b" fill-rule="evenodd" d="m 185.50349,7.508608 c -0.0817,6.793067 0.5438,12.497252 2.02517,17.958057 l -10.01003,0 c 6.2647,-1.678622 7.98486,-2.258904 7.98486,-17.958057 z"/><path fill="#1b1e34" stroke="#12141a" stroke-linecap="round" style="isolation:auto;mix-blend-mode:normal" d="m 175.12546,28.50586 c -0.90151,0 -1.62546,0.61482 -1.62546,1.378906 l 0,0.236328 c 0,0.0086 0.002,0.01678 0.002,0.02539 l -0.002,0 0,1.353516 1.62546,0 14.74908,0 1.62546,0 0,-1.353516 -0.002,0 c 1.8e-4,-0.0086 0.002,-0.01674 0.002,-0.02539 l 0,-0.236328 c 0,-0.764086 -0.72395,-1.378906 -1.62546,-1.378906 l -14.74908,0 z" color="#000" overflow="visible"/><path fill="none" stroke="#fed87f" d="m 178.62478,25.466665 c 1.48137,-5.460805 1.94802,-11.139899 1.86627,-17.932966" opacity=".421"/><path fill="#2e303e" fill-rule="evenodd" d="m 176.60287,28.993148 2,0 c -0.32973,0.365177 -0.44623,0.717567 -0.4597,1.059016 -0.0132,0.334438 0.0138,0.501041 0.0138,0.940984 l -2.07303,0 c 0,-0.578897 -0.0142,-0.680508 -0.005,-1.020761 0.009,-0.326413 0.18487,-0.652826 0.52402,-0.979239 z"/><rect width="13.832" height="3" x="175.618" y="25.506" fill="#fece5f" stroke="#12141a" rx="1.5" ry="1.5"/><path fill="#fed87f" fill-rule="evenodd" d="m 177.58804,26.00586 2,0 c -0.64191,0.710936 -0.58639,1.373774 0,2 l -2,0 c -0.70559,-0.666667 -0.6927,-1.333333 0,-2 z"/><path fill="#fed36e" fill-rule="evenodd" d="m 180.30504,26.00586 0.71292,0 c -0.64191,0.710936 -0.58638,1.373774 0,2 l -0.71292,0 c -0.70559,-0.666667 -0.6927,-1.333333 0,-2 z"/><path fill="#24273b" fill-rule="evenodd" d="m 179.35181,28.993148 0.77648,0 c -0.32972,0.365177 -0.44622,0.717567 -0.4597,1.059016 -0.0132,0.334438 0.0138,0.501041 0.0138,0.940984 l -0.84951,0 c 0,-0.578897 -0.0142,-0.680508 -0.005,-1.020761 0.009,-0.326413 0.18487,-0.652826 0.52402,-0.979239 z"/><path fill="#f9a74a" fill-rule="evenodd" d="m 187.67596,26.00586 -1.10114,0 c 0.64191,0.710936 0.58639,1.373774 0,2 l 1.10114,0 c 0.70558,-0.666667 0.69269,-1.333333 0,-2 z"/><path fill="#16192b" fill-rule="evenodd" d="m 189.28916,28.993148 -1.3708,0 c 0.32972,0.365177 0.44623,0.717567 0.4597,1.059016 0.0132,0.334438 -0.0138,0.501041 -0.0138,0.940984 l 1.44383,0 c 0,-0.578897 0.0142,-0.680508 0.005,-1.020761 -0.009,-0.326413 -0.18487,-0.652826 -0.52403,-0.979239 z"/><rect width="5.781" height="1" x="179.609" y="10.015" fill="#f49d3b" rx="0" ry="0"/><path fill="none" stroke="#12141a" d="m 185.50349,7.5559539 c -0.0907,7.5377961 0.5438,12.4499061 2.02517,17.9107111 l -10.01003,0 C 179,20.00586 179.60273,15.09375 179.51202,7.5559539"/><rect width="10" height="2" x="177.5" y="7.5" fill="#fece5f" stroke="#12141a" rx="1.13" ry="1"/><path fill="#fed87f" fill-rule="evenodd" d="m 180.01235,7.9999997 1,0 c -0.32096,0.3554679 -0.2932,0.6868871 0,1 l -1,0 c -0.3528,-0.3333335 -0.34635,-0.6666665 0,-1 z"/><path fill="#f9a74a" fill-rule="evenodd" d="m 185.73782,7.9999997 -1,0 c 0.32095,0.3554679 0.29319,0.6868871 0,1 l 1,0 c 0.35279,-0.3333335 0.34635,-0.6666665 0,-1 z"/><path fill="none" stroke="#12141a" stroke-linecap="round" stroke-linejoin="round" d="m 179.23079,7.3256991 c -2.04954,-2.6371621 0.84352,-4.5876447 3.22233,-6.89241026 2.4427,2.27953756 5.3022,4.21250576 3.29891,6.80605656"/></g><path fill="#fff" fill-rule="evenodd" style="line-height:normal;text-indent:0;text-align:start;text-decoration-line:none;text-decoration-style:solid;text-decoration-color:#000;text-transform:none;block-progression:tb;isolation:auto;mix-blend-mode:normal" d="m 249.86123,-107.91209 c -0.146,0.14601 -0.61226,0.30613 -0.61226,0.30613 0,0 0.46865,0.16253 0.61226,0.30613 0.1436,0.14361 0.30613,0.60628 0.30613,0.60628 0,0 0.16252,-0.46267 0.30613,-0.60628 0.1436,-0.1436 0.61226,-0.30613 0.61226,-0.30613 0,0 -0.46626,-0.16012 -0.61226,-0.30613 -0.146,-0.146 -0.30613,-0.6266 -0.30613,-0.6266 0,0 -0.16013,0.4806 -0.30613,0.6266 z" color="#000" font-family="sans-serif" font-weight="400" overflow="visible" white-space="normal"/></g></svg>