<svg xmlns="http://www.w3.org/2000/svg" width="32" height="32" viewBox="0 0 32 32"><g transform="translate(-174 115.604)"><path fill="#febb46" fill-rule="evenodd" d="m 193.00349,-108.09848 c -0.0817,6.79306 0.5438,12.49725 2.02517,17.958055 l -10.01003,0 c 1.48137,-5.460805 2.07514,-11.164995 1.99339,-17.958055 z"/><path fill="#f49d3b" fill-rule="evenodd" d="m 193.00349,-108.09848 c -0.0817,6.79306 0.5438,12.49725 2.02517,17.958055 l -10.01003,0 c 6.2647,-1.678622 7.98486,-2.258904 7.98486,-17.958055 z"/><path fill="none" stroke="#12141a" d="m 193.00349,-108.09848 c -0.0817,6.79306 0.5438,12.49725 2.02517,17.958055 l -10.01003,0 c 1.48137,-5.460805 2.07514,-11.164995 1.99339,-17.958055 z"/><path fill="#febb46" fill-rule="evenodd" d="m 187.17935,-108.23259 -1.05195,-2.35381 3.99982,-1.83145 3.73018,1.83145 -1.06927,2.41737"/><path fill="#fec85e" fill-rule="evenodd" d="m 187.45742,-108.23259 -1.05195,-2.35381 3.87271,-1.47393 c -1.62723,1.62723 -2.26059,1.73715 -2.82076,3.82774 z"/><path fill="#1b1e34" stroke="#12141a" stroke-linecap="round" d="m 182.62546,-87.10123 c -0.90151,0 -1.62546,0.61482 -1.62546,1.378906 l 0,0.236328 c 0,0.0086 0.002,0.01678 0.002,0.02539 l -0.002,0 0,1.353516 1.62546,0 14.74908,0 1.62546,0 0,-1.353516 -0.002,0 c 1.8e-4,-0.0086 0.002,-0.01674 0.002,-0.02539 l 0,-0.236328 c 0,-0.764086 -0.72395,-1.378906 -1.62546,-1.378906 l -14.74908,0 z" color="#000" overflow="visible" style="isolation:auto;mix-blend-mode:normal"/><rect width="5" height="1" x="187.5" y="-105.586" fill="#f49d3b" rx="0" ry="0"/><path fill="none" stroke="#fed87f" d="m 186.12349,-90.140425 c 1.48137,-5.460805 1.94802,-11.164995 1.86627,-17.958055" opacity=".421"/><rect width="10" height="2" x="185" y="-108.101" fill="#fece5f" stroke="#12141a" rx="1.13" ry="1"/><path fill="none" stroke="#12141a" d="M190.08989-112.5864l0-3.01483M188.58987-114.07793l3.00002 0"/><path fill="#2e303e" fill-rule="evenodd" d="m 184.10287,-86.613942 2,0 c -0.32973,0.365177 -0.44623,0.717567 -0.4597,1.059016 -0.0132,0.334438 0.0138,0.501041 0.0138,0.940984 l -2.07304,0 c 0,-0.578897 -0.0142,-0.680508 -0.005,-1.020761 0.009,-0.326413 0.18488,-0.652826 0.52403,-0.979239 z"/><rect width="13.832" height="3" x="183.118" y="-90.101" fill="#fece5f" stroke="#12141a" rx="1.5" ry="1.5"/><path fill="#fed87f" fill-rule="evenodd" d="M185.08803-89.60123l2 0c-.6419.710936-.58638 1.373774 0 2l-2 0c-.70558-.666667-.69269-1.333333 0-2zM187.51235-107.60123l1 0c-.32096.35547-.2932.68689 0 1l-1 0c-.3528-.33333-.34635-.66667 0-1z"/><path fill="none" stroke="#12141a" d="m 187.17935,-108.23259 -1.05195,-2.35381 3.99982,-1.83145 3.73018,1.83145 -1.06927,2.41737"/><path fill="#fed36e" fill-rule="evenodd" d="m 187.80504,-89.60123 0.71292,0 c -0.64191,0.710936 -0.58638,1.373774 0,2 l -0.71292,0 c -0.70559,-0.666667 -0.6927,-1.333333 0,-2 z"/><path fill="#24273b" fill-rule="evenodd" d="m 186.85181,-86.613942 0.77648,0 c -0.32972,0.365177 -0.44622,0.717567 -0.4597,1.059016 -0.0132,0.334438 0.0138,0.501041 0.0138,0.940984 l -0.84951,0 c 0,-0.578897 -0.0142,-0.680508 -0.005,-1.020761 0.009,-0.326413 0.18487,-0.652826 0.52402,-0.979239 z"/><path fill="#f9a74a" fill-rule="evenodd" d="m 195.17596,-89.60123 -1.10114,0 c 0.64191,0.710936 0.58639,1.373774 0,2 l 1.10114,0 c 0.70558,-0.666667 0.69269,-1.333333 0,-2 z"/><path fill="#16192b" fill-rule="evenodd" d="m 196.78916,-86.613942 -1.3708,0 c 0.32972,0.365177 0.44623,0.717567 0.4597,1.059016 0.0132,0.334438 -0.0138,0.501041 -0.0138,0.940984 l 1.44383,0 c 0,-0.578897 0.0142,-0.680508 0.005,-1.020761 -0.009,-0.326413 -0.18487,-0.652826 -0.52403,-0.979239 z"/><path fill="#fff" fill-rule="evenodd" d="m 187.28783,-107.8972 c -0.146,0.14601 -0.61226,0.30613 -0.61226,0.30613 0,0 0.46865,0.16253 0.61226,0.30613 0.1436,0.14361 0.30613,0.60628 0.30613,0.60628 0,0 0.16252,-0.46267 0.30613,-0.60628 0.1436,-0.1436 0.61226,-0.30613 0.61226,-0.30613 0,0 -0.46626,-0.16012 -0.61226,-0.30613 -0.146,-0.146 -0.30613,-0.6266 -0.30613,-0.6266 0,0 -0.16013,0.4806 -0.30613,0.6266 z" color="#000" font-family="sans-serif" font-weight="400" overflow="visible" white-space="normal" style="line-height:normal;text-indent:0;text-align:start;text-decoration-line:none;text-decoration-style:solid;text-decoration-color:#000;text-transform:none;block-progression:tb;isolation:auto;mix-blend-mode:normal"/></g></svg>