<svg xmlns="http://www.w3.org/2000/svg" width="32" height="32" viewBox="0 0 32 32"><g transform="translate(-257.794 154.41)"><path fill="#ff5855" fill-rule="evenodd" d="m 275.90125,-144.38955 c -0.0578,4.88975 0.38453,8.99571 1.43205,12.92648 l -7.07834,0 c 1.04752,-3.93077 1.46739,-8.03673 1.40958,-12.92648 z"/><path fill="#ed4343" fill-rule="evenodd" d="m 275.69708,-143.83351 c -0.0564,4.68702 0.37521,8.62274 1.39731,12.39054 l -6.90663,0 c 4.32246,-1.15821 5.50932,-1.55858 5.50932,-12.39054 z"/><path fill="#1b1e34" stroke="#12141a" stroke-linecap="round" d="m 267.64868,-128.40378 c -0.75126,0 -1.35455,0.61482 -1.35455,1.37891 l 0,0.23632 c 0,0.009 0.002,0.0168 0.002,0.0254 l -0.002,0 0,1.35352 1.35455,0 12.2909,0 1.35455,0 0,-1.35352 -0.002,0 c 1.5e-4,-0.009 0.002,-0.0167 0.002,-0.0254 l 0,-0.23632 c 0,-0.76409 -0.60329,-1.37891 -1.35455,-1.37891 l -12.2909,0 z" color="#000" overflow="visible" style="isolation:auto;mix-blend-mode:normal"/><rect width="5" height="1" x="271.294" y="-146.889" fill="#f49d3b" rx="0" ry="0"/><rect width="7" height="2" x="270.294" y="-146.389" fill="#ff785e" stroke="#12141a" rx="1" ry="1"/><path fill="#2e303e" fill-rule="evenodd" d="m 268.32117,-127.91649 2,0 c -0.32972,0.36518 -0.44622,0.71756 -0.4597,1.05901 -0.0132,0.33444 0.0138,0.50105 0.0138,0.94099 l -2.07303,0 c 0,-0.5789 -0.0142,-0.68051 -0.005,-1.02076 0.009,-0.32642 0.18487,-0.65283 0.52403,-0.97924 z"/><rect width="11" height="3" x="268.294" y="-131.404" fill="#ff785e" stroke="#12141a" rx="1.193" ry="1.5"/><path fill="#fff" fill-rule="evenodd" d="M270.3185-130.90378l2 0c-.64191.71094-.58639 1.37377 0 2l-2 0c-.70559-.66667-.6927-1.33333 0-2zM272.05631-145.88895l1 0c-.32095.35547-.29319.68689 0 1l-1 0c-.35279-.33333-.34634-.66667 0-1zM273.0355-130.90378l.71292 0c-.64191.71094-.58638 1.37377 0 2l-.71292 0c-.70559-.66667-.6927-1.33333 0-2z" opacity=".11"/><path fill="#24273b" fill-rule="evenodd" d="m 271.07011,-127.91649 0.77649,0 c -0.32973,0.36518 -0.44623,0.71756 -0.4597,1.05901 -0.0132,0.33444 0.0138,0.50105 0.0138,0.94099 l -0.84952,0 c 0,-0.5789 -0.0142,-0.68051 -0.005,-1.02076 0.009,-0.32642 0.18488,-0.65283 0.52403,-0.97924 z"/><path fill="#ed4343" fill-rule="evenodd" d="m 277.26976,-130.90378 -1.10113,0 c 0.64191,0.71094 0.58638,1.37377 0,2 l 1.10113,0 c 0.70559,-0.66667 0.6927,-1.33333 0,-2 z"/><path fill="#16192b" fill-rule="evenodd" d="m 278.26709,-127.91649 -1.3708,0 c 0.32972,0.36518 0.44622,0.71756 0.4597,1.05901 0.0132,0.33444 -0.0138,0.50105 -0.0138,0.94099 l 1.44383,0 c 0,-0.5789 0.0142,-0.68051 0.005,-1.02076 -0.009,-0.32642 -0.18488,-0.65283 -0.52403,-0.97924 z"/><circle cx="273.794" cy="-148.91" r="2.5" fill="#ff5855"/><path fill="#ff7a6c" fill-rule="evenodd" d="m 272.54413,-146.90964 1,0 c -0.67589,-1.10157 -0.72317,-2.74743 0,-4 -1.01144,1.01144 -1.62561,2.91642 -1,4 z" opacity=".421"/><path fill="#ed4343" fill-rule="evenodd" stroke="#ed4343" d="m 271.82578,-143.3828 3.96643,0"/><path fill="none" stroke="#ff7a6c" d="m 271.25539,-131.46307 c 1.04752,-3.93077 1.46739,-8.03673 1.40958,-12.92648" opacity=".421"/><path fill="none" stroke="#12141a" d="m 275.90125,-144.38955 c -0.0578,4.88975 0.38453,8.99571 1.43205,12.92648 l -7.07834,0 c 1.04752,-3.93077 1.46739,-8.03673 1.40958,-12.92648 z"/><circle cx="273.794" cy="-148.91" r="2.5" fill="none" stroke="#12141a" stroke-linecap="round" stroke-linejoin="round"/><path fill="#ed4343" fill-rule="evenodd" d="m 275.54413,-145.88895 -1,0 c 0.32096,0.35547 0.29319,0.68689 0,1 l 1,0 c 0.35279,-0.33333 0.34635,-0.66667 0,-1 z"/><path fill="#fff" fill-rule="evenodd" style="line-height:normal;text-indent:0;text-align:start;text-decoration-line:none;text-decoration-style:solid;text-decoration-color:#000;text-transform:none;block-progression:tb;isolation:auto;mix-blend-mode:normal" d="m 271.80694,-146.19847 c -0.146,0.14601 -0.61226,0.30613 -0.61226,0.30613 0,0 0.46865,0.16253 0.61226,0.30613 0.1436,0.14361 0.30613,0.60628 0.30613,0.60628 0,0 0.16252,-0.46267 0.30613,-0.60628 0.1436,-0.1436 0.61226,-0.30613 0.61226,-0.30613 0,0 -0.46626,-0.16012 -0.61226,-0.30613 -0.146,-0.146 -0.30613,-0.6266 -0.30613,-0.6266 0,0 -0.16013,0.4806 -0.30613,0.6266 z" color="#000" font-family="sans-serif" font-weight="400" overflow="visible" white-space="normal"/></g></svg>